<?xml version="1.0" encoding="UTF-8" standalone="no"?> <svg xmlns="http://www.w3.org/2000/svg" viewBox="0 0 64 64"><title>Charger, Android, Port</title><g id="Layer_24" data-name="Layer 24"><path d="M6,26V38a2,2,0,0,1-4,0V26a2,2,0,0,1,4,0ZM60,36H54V28h6a2,2,0,0,0,0-4H53.77A6.2,6.2,0,0,0,48,19H39V17a2,2,0,0,0-2-2H13.62A5.62,5.62,0,0,0,8,20.62V43.38A5.62,5.62,0,0,0,13.62,49H37a2,2,0,0,0,2-2V23h9c1.08,0,2,1.32,2,2.89V38.11c0,1.57-.92,2.89-2,2.89H43a2,2,0,0,0,0,4h5a6.2,6.2,0,0,0,5.77-5H60a2,2,0,0,0,0-4Z"/></g></svg>