<?xml version="1.0" encoding="UTF-8" standalone="no"?> <svg xmlns="http://www.w3.org/2000/svg" viewBox="0 0 64 64"><title>Cam, Camera, Security, Surveillance</title><g id="Layer_17" data-name="Layer 17"><path d="M57.92,20.25a2,2,0,0,0-1.27-1.34L14.08,4.32A6,6,0,0,0,6.46,8.06L3.54,16.57a10,10,0,0,0,6.22,12.7l20.38,7-2.6,6.21-.06.16A2,2,0,0,1,25,43.9L16.4,41.12a2,2,0,0,1-1.28-2.52l.62-1.91a2,2,0,1,0-3.81-1.23l-.62,1.9a6,6,0,0,0,3.85,7.56l.82.27L4.59,56.59a2,2,0,1,0,2.82,2.82L20.25,46.58l3.47,1.12a6,6,0,0,0,7.53-3.76l2.59-6.17a.88.88,0,0,0,.07-.23l4.72,1.62a5.87,5.87,0,0,0,1.93.32,6,6,0,0,0,4.68-2.22l12.31-15.2A2,2,0,0,0,57.92,20.25Zm-37-5.12a2,2,0,0,1-1.89,1.36,2.16,2.16,0,0,1-.65-.11l-5.67-1.95A2,2,0,1,1,14,10.65l5.68,1.94A2,2,0,0,1,20.94,15.13Zm39.64,13.1-7,9a2,2,0,0,1-2.81.35,2,2,0,0,1-.35-2.81l7-9a2,2,0,1,1,3.16,2.46Z"/></g></svg>